<svg xmlns="http://www.w3.org/2000/svg" width="266" height="80" viewBox="0 0 266 80"><defs><style>.a{fill:#fff;stroke:#fff;stroke-linecap:round;stroke-width:0.5px;}</style></defs><rect width="266" height="80" rx="10"/><path class="a" d="M-90.408-5.848a14.492,14.492,0,0,1-11.008,4.773,14.453,14.453,0,0,1-10.363-4.171,14.731,14.731,0,0,1-4.6-10.277h17.544v-1.505H-116.38A14.514,14.514,0,0,1-111.649-27a14.3,14.3,0,0,1,10.234-4.171A14.279,14.279,0,0,1-91.1-27.047l1.032-1.075a15.958,15.958,0,0,0-11.352-4.558,16.116,16.116,0,0,0-11.7,4.859,15.976,15.976,0,0,0-4.859,11.7,15.976,15.976,0,0,0,4.859,11.7A16.116,16.116,0,0,0-101.415.43,15.956,15.956,0,0,0-89.332-4.816Zm22.833,3.956a11.186,11.186,0,0,1-4.214.86A10.327,10.327,0,0,1-79.572-4.3a10.771,10.771,0,0,1-3.1-7.611,10.169,10.169,0,0,1,3.268-7.74,10.635,10.635,0,0,1,7.611-3.139,10.672,10.672,0,0,1,7.568,3.1,9.922,9.922,0,0,1,3.311,7.482V0h1.5V-11.911a11.66,11.66,0,0,0-3.741-8.858A12.021,12.021,0,0,0-71.788-24.3,11.884,11.884,0,0,0-80.6-20.6a12.089,12.089,0,0,0-3.569,8.686,11.725,11.725,0,0,0,3.741,8.858A12.165,12.165,0,0,0-71.788.473a12.373,12.373,0,0,0,4.816-.989Zm27.477.817a10.706,10.706,0,0,1-7.525-3.182,10.2,10.2,0,0,1-3.311-7.611V-22.36h5.16v-1.548h-5.16v-9.46h-1.591v21.457a12.167,12.167,0,0,0,3.7,8.729A11.915,11.915,0,0,0-40.1.43ZM-20.016-32.68a16.042,16.042,0,0,0-11.782,4.9,15.977,15.977,0,0,0-4.859,11.7,15.852,15.852,0,0,0,4.9,11.7A16.1,16.1,0,0,0-20.016.43,15.937,15.937,0,0,0-8.32-4.386a15.852,15.852,0,0,0,4.9-11.7,15.894,15.894,0,0,0-4.9-11.653A15.866,15.866,0,0,0-20.016-32.68ZM-5.1-16.082A14.539,14.539,0,0,1-9.481-5.418,14.378,14.378,0,0,1-20.016-1.075,14.416,14.416,0,0,1-30.594-5.461,14.443,14.443,0,0,1-34.98-16.082,14.581,14.581,0,0,1-30.594-26.7a14.47,14.47,0,0,1,10.578-4.472A14.212,14.212,0,0,1-9.524-26.7,14.524,14.524,0,0,1-5.1-16.082Zm20.038-8.256a12.139,12.139,0,0,0-8.6,3.526A11.6,11.6,0,0,0,2.6-11.954V0h1.5V-11.954a10.491,10.491,0,0,1,3.182-7.654,10.366,10.366,0,0,1,7.654-3.225ZM30.724-13.244a11.943,11.943,0,0,0,8.127-3.87,11.786,11.786,0,0,0,3.4-8.471V-32.25h-1.5v6.665a10.366,10.366,0,0,1-3.225,7.654,10.535,10.535,0,0,1-7.611,3.182,10.491,10.491,0,0,1-7.654-3.182,10.491,10.491,0,0,1-3.182-7.654V-32.25H17.523v6.665a11.926,11.926,0,0,0,3.354,8.471,12.055,12.055,0,0,0,8.213,3.87V0h1.634Zm40.807-.43a12.152,12.152,0,0,0-4.171-7.568,11.837,11.837,0,0,0-8.041-3.01A11.915,11.915,0,0,0,50.59-20.64a11.915,11.915,0,0,0-3.612,8.729A11.958,11.958,0,0,0,50.59-3.225,11.859,11.859,0,0,0,59.319.43a12.721,12.721,0,0,0,9.2-4.128L67.4-4.73a10.305,10.305,0,0,1-8.084,3.655,10.491,10.491,0,0,1-7.654-3.182,10.561,10.561,0,0,1-3.182-7.654,10.309,10.309,0,0,1,3.311-7.568,10.451,10.451,0,0,1,7.525-3.268,10.565,10.565,0,0,1,6.364,2.107,10.191,10.191,0,0,1,3.956,5.418H53.556v1.548Zm29.713,0a12.152,12.152,0,0,0-4.171-7.568,11.837,11.837,0,0,0-8.041-3.01A11.915,11.915,0,0,0,80.3-20.64a11.915,11.915,0,0,0-3.612,8.729A11.958,11.958,0,0,0,80.3-3.225,11.859,11.859,0,0,0,89.031.43a12.721,12.721,0,0,0,9.2-4.128L97.115-4.73a10.305,10.305,0,0,1-8.084,3.655,10.491,10.491,0,0,1-7.654-3.182A10.561,10.561,0,0,1,78.2-11.911a10.309,10.309,0,0,1,3.311-7.568,10.451,10.451,0,0,1,7.525-3.268A10.565,10.565,0,0,1,95.4-20.64a10.191,10.191,0,0,1,3.956,5.418H83.27v1.548Zm18.447,12.6a10.706,10.706,0,0,1-7.525-3.182,10.2,10.2,0,0,1-3.311-7.611V-22.36h5.16v-1.548h-5.16v-9.46h-1.591v21.457a12.167,12.167,0,0,0,3.7,8.729A11.915,11.915,0,0,0,119.69.43Z" transform="translate(133 56)"/></svg>